<svg width="30" height="30" xmlns="http://www.w3.org/2000/svg" xmlns:xlink="http://www.w3.org/1999/xlink" version="1.1" x="0px" y="0px" viewBox="0 0 135 110" enable-background="new 0 0 100 100" xml:space="preserve"><path d="M82.386,66.767L72.704,50l9.708-16.813c0.428-0.741,0.428-1.655,0-2.396s-1.22-1.198-2.076-1.198H60.922l-8.846-15.323  c-0.429-0.741-1.22-1.198-2.076-1.198c-0.857,0-1.647,0.457-2.076,1.198l-8.847,15.323H19.663c-0.856,0-1.648,0.457-2.076,1.198  c-0.428,0.741-0.428,1.655,0,2.396L27.295,50l-9.708,16.813c-0.428,0.742-0.428,1.655,0,2.397c0.428,0.741,1.219,1.198,2.076,1.198  h19.414l8.847,15.323c0.428,0.742,1.219,1.198,2.076,1.198c0.856,0,1.647-0.456,2.076-1.198l8.846-15.323h19.414l0,0  c1.324,0,2.397-1.073,2.397-2.396C82.733,67.555,82.606,67.129,82.386,66.767z M76.185,34.386l-6.247,10.82l-6.248-10.82H76.185z   M67.171,50l-9.016,15.615H41.844L32.83,50l9.015-15.614h16.311L67.171,50z M50,20.26l5.388,9.332H44.612L50,20.26z M23.813,34.386  H36.31l-6.249,10.82L23.813,34.386z M23.813,65.615l6.248-10.822l6.249,10.822H23.813z M50,79.74l-5.388-9.332h10.776L50,79.74z   M63.689,65.615l6.248-10.822l6.247,10.822H63.689z"/></svg>
