<svg xmlns="http://www.w3.org/2000/svg" xmlns:xlink="http://www.w3.org/1999/xlink" version="1.2" baseProfile="tiny" x="0px" y="0px" viewBox="0 0 100 125" xml:space="preserve"><g><path d="M93,23.5c0-1.1044922-0.8955078-2-2-2s-2,0.8955078-2,2c0,26.2861938-16.4077148,47.8320923-37,49.25354V62.5453491   C67.257019,61.0661621,79.3330078,44.1278687,79.3330078,23.5c0-1.1044922-0.8955078-2-2-2s-2,0.8955078-2,2   c0,18.383606-10.2841187,33.5048828-23.3330078,35.0276489v-9.9494019   C59.5353394,46.8873291,65.1669922,36.4865112,65.1669922,23.5c0-1.1044922-0.8955078-2-2-2s-2,0.8955078-2,2   c0,10.1724854-4.0187378,18.9412842-9.1669922,20.9072266V23.5c0-1.1044922-0.8955078-2-2-2s-2,0.8955078-2,2v20.9588623   C42.7723999,42.6195068,38.6665039,33.7810669,38.6665039,23.5c0-1.1044922-0.8955078-2-2-2s-2,0.8955078-2,2   c0,13.0822754,5.7144775,23.5431519,13.3334961,25.1166382v9.9291992C34.8718262,57.1329956,24.5,41.961731,24.5,23.5   c0-1.1044922-0.8955078-2-2-2s-2,0.8955078-2,2c0,20.703186,12.1636353,37.6929321,27.5,39.0639648v10.2000732   C27.3294067,71.4476318,10.8334961,49.8569336,10.8334961,23.5c0-1.1044922-0.8955078-2-2-2s-2,0.8955078-2,2   c0,28.5785522,18.2906494,51.9613647,41.1665039,53.2584839v11.1578979C41.3919678,88.3810425,36.333313,90.9237061,36.333313,94   H64c0-3.1279907-5.2290039-5.7055664-12-6.1063232V76.7521362C74.7983398,75.3516235,93,52.0094604,93,23.5z"/><path d="M11.333333,16.4134617c0,1.3807125-1.1192875,2.5-2.5,2.5s-2.4999995-1.1192875-2.4999995-2.5   s2.4999995-6.4102564,2.4999995-6.4102564S11.333333,15.0327501,11.333333,16.4134617z"/><path d="M25.333334,16.4134617c0,1.3807125-1.1192894,2.5-2.5,2.5c-1.3807125,0-2.5-1.1192875-2.5-2.5s2.5-6.4102564,2.5-6.4102564   S25.333334,15.0327501,25.333334,16.4134617z"/><path d="M39.3333321,16.4134617c0,1.3807125-1.1192856,2.5-2.5,2.5c-1.3807106,0-2.5-1.1192875-2.5-2.5   s2.5-6.4102564,2.5-6.4102564S39.3333321,15.0327501,39.3333321,16.4134617z"/><path d="M52.3333321,16.4134617c0,1.3807125-1.1192856,2.5-2.5,2.5c-1.3807106,0-2.5-1.1192875-2.5-2.5   s2.5-6.4102564,2.5-6.4102564S52.3333321,15.0327501,52.3333321,16.4134617z"/><path d="M65.3333359,16.4134617c0,1.3807125-1.1192932,2.5-2.5000038,2.5s-2.5-1.1192875-2.5-2.5s2.5-6.4102564,2.5-6.4102564   S65.3333359,15.0327501,65.3333359,16.4134617z"/><path d="M79.3333359,16.4134617c0,1.3807125-1.1192932,2.5-2.5,2.5c-1.3807144,0-2.5-1.1192875-2.5-2.5   s2.5-6.4102564,2.5-6.4102564S79.3333359,15.0327501,79.3333359,16.4134617z"/><path d="M93.3333359,16.4134617c0,1.3807125-1.1192932,2.5-2.5,2.5c-1.3807144,0-2.5-1.1192875-2.5-2.5   s2.5-6.4102564,2.5-6.4102564S93.3333359,15.0327501,93.3333359,16.4134617z"/></g></svg>
