<svg xmlns="http://www.w3.org/2000/svg" height="25" width="23" viewBox="21 20 100 115"><path d="M104.4 39.8c1.1-1.1 1.1-2.8.1-3.9l-2-2.1-2 2.1c-1 1.1-1 2.7 0 3.8 1.1 1.1 2.8 1.2 3.9.1zm-4.6 21.5c0 15-11.5 27.4-26.2 28.8v-4.8c12-1.4 21.4-11.6 21.4-24V42.7h-5.5v18.6c0 9.3-6.9 17.1-15.9 18.4v-4.8c6.3-1.3 11.1-6.9 11.1-13.6V42.7h-5.5v18.6c0 3.6-2.4 6.8-5.6 7.9V42.7h-5.5v26.5c-3.3-1.1-5.6-4.2-5.6-7.9V42.7H57v18.6c0 6.7 4.8 12.3 11.1 13.6v4.8c-9-1.3-15.9-9.1-15.9-18.4V42.7h-5.5v18.6c0 12.4 9.4 22.6 21.4 24v4.8c-14.7-1.4-26.2-13.8-26.2-28.8V42.7h-5.5v18.6c0 18.1 14 32.9 31.7 34.3v9.6h-9.9v5.5h25.4v-5.5h-9.9v-9.6c17.7-1.4 31.7-16.2 31.7-34.3V42.7h-5.5v18.6zm-5.6-21.5c1.1-1.1 1.1-2.8.1-3.9l-2-2.1-2 2.1c-1 1.1-1 2.7 0 3.8 1 1.1 2.8 1.2 3.9.1zm-10.3 0c1.1-1 1.1-2.8.1-3.9l-2-2.1-2 2.1c-1 1.1-1 2.7 0 3.8 1 1.1 2.8 1.2 3.9.1zm-11.1 0c1.1-1.1 1.1-2.8.1-3.9l-2-2.1-2 2.1c-1 1.1-1 2.7 0 3.8 1 1.1 2.8 1.2 3.9.1zm-11.1 0c1.1-1.1 1.1-2.8.1-3.9l-2-2.1-2 2.1c-1 1.1-1 2.7 0 3.8 1 1.1 2.7 1.2 3.9.1zm-10.3 0c1.1-1.1 1.1-2.8.1-3.9l-2-2.1-2 2.1c-1 1.1-1 2.7 0 3.8 1 1.1 2.8 1.2 3.9.1zm-10.3 0c1.1-1.1 1.1-2.8.1-3.9l-2-2.1-2 2.1c-1 1.1-1 2.7 0 3.8 1 1.1 2.8 1.2 3.9.1z"/></svg>