<svg xmlns="http://www.w3.org/2000/svg" viewBox="0 0 100 125"><path style="text-indent:0;text-transform:none;block-progression:tb" d="M37 15c-3.826 0-7 3.174-7 7v3H12c-3.826 0-7 3.174-7 7v46c0 3.826 3.174 7 7 7h76c3.826 0 7-3.174 7-7V32c0-3.826-3.174-7-7-7H70v-3c0-3.826-3.174-7-7-7zm0 6h26c.606 0 1 .394 1 1v3H36v-3c0-.606.394-1 1-1zM12 31h76c.606 0 1 .394 1 1v6.063C80.053 44.578 65.912 49 50 49c-15.912 0-30.053-4.42-39-10.938V32c0-.606.394-1 1-1zm-1 14.25c7.829 4.748 17.832 7.997 29 9.219V59c0 2.718 2.282 5 5 5h10c2.718 0 5-2.282 5-5v-4.531c11.168-1.222 21.171-4.47 29-9.219V78c0 .606-.394 1-1 1H12c-.606 0-1-.394-1-1zm35 9.688c1.32.056 2.656.062 4 .062 1.344 0 2.68-.006 4-.063V58h-8z" overflow="visible" color="#000"/></svg>