<svg xmlns="http://www.w3.org/2000/svg" xmlns:xlink="http://www.w3.org/1999/xlink" version="1.1" x="0px" y="0px" viewBox="0 0 100 125" enable-background="new 0 0 100 100" xml:space="preserve"><g><path d="M49.999,60.049c-0.416,0-0.831-0.104-1.207-0.311L1.293,33.566C0.496,33.127,0,32.289,0,31.378s0.495-1.75,1.292-2.189   l47.5-26.227c0.752-0.415,1.666-0.415,2.417,0l47.5,26.227c0.798,0.44,1.292,1.279,1.292,2.189s-0.496,1.749-1.294,2.188   L51.205,59.738C50.83,59.945,50.415,60.049,49.999,60.049z M7.676,31.375l42.323,23.32l42.324-23.32L50,8.006L7.676,31.375z"/><path d="M17.5,54.708c-1.381,0-2.5-1.119-2.5-2.5V41.064c0-1.381,1.119-2.5,2.5-2.5s2.5,1.119,2.5,2.5v11.144   C20,53.589,18.881,54.708,17.5,54.708z"/><path d="M82.5,54.708c-1.381,0-2.5-1.119-2.5-2.5V41.064c0-1.381,1.119-2.5,2.5-2.5s2.5,1.119,2.5,2.5v11.144   C85,53.589,83.881,54.708,82.5,54.708z"/><path d="M50,77.517c-19.299,0-35-10.876-35-24.245c0-1.381,1.119-2.5,2.5-2.5s2.5,1.119,2.5,2.5c0,10.611,13.458,19.245,30,19.245   s30-8.634,30-19.245c0-1.381,1.119-2.5,2.5-2.5s2.5,1.119,2.5,2.5C85,66.641,69.299,77.517,50,77.517z"/><path d="M26.751,46.092c-0.895,0-1.76-0.482-2.209-1.327c-0.648-1.219-0.185-2.733,1.034-3.381l23.116-12.287   c1.219-0.648,2.732-0.185,3.381,1.034s0.185,2.733-1.034,3.381L27.922,45.799C27.548,45.998,27.147,46.092,26.751,46.092z"/><path d="M26.375,85.226c-1.381,0-2.5-1.119-2.5-2.5V44.975c0-1.381,1.119-2.5,2.5-2.5s2.5,1.119,2.5,2.5v37.751   C28.875,84.106,27.756,85.226,26.375,85.226z"/><path d="M31.5,97.35H21.25c-1.381,0-2.5-1.119-2.5-2.5V88.1c0-4.204,3.42-7.625,7.625-7.625S34,83.896,34,88.1v6.75   C34,96.23,32.881,97.35,31.5,97.35z M23.75,92.35H29V88.1c0-1.447-1.178-2.625-2.625-2.625S23.75,86.652,23.75,88.1V92.35z"/></g></svg>
