<svg xmlns="http://www.w3.org/2000/svg" xmlns:xlink="http://www.w3.org/1999/xlink" version="1.1" x="0px" y="0px" viewBox="0 0 200 200" style="enable-background: new 0 0 200 200;" xml:space="preserve"><g><path d="M141.4,97.8c0-0.1,0-0.2,0-0.3c0-0.1-0.1-0.2-0.1-0.3c0-0.1-0.1-0.3-0.1-0.4c0,0,0,0,0-0.1c0-0.1-0.1-0.2-0.1-0.2   c-0.1-0.1-0.1-0.2-0.2-0.4c-0.1-0.1-0.2-0.2-0.2-0.3c-0.1-0.1-0.1-0.2-0.2-0.3c-0.1-0.1-0.2-0.2-0.3-0.2c-0.1-0.1-0.2-0.1-0.3-0.2   c-0.1-0.1-0.2-0.1-0.3-0.2c-0.1-0.1-0.2-0.1-0.3-0.2c-0.1,0-0.2-0.1-0.3-0.1c-0.1,0-0.2-0.1-0.4-0.1c-0.1,0-0.3,0-0.4,0   c-0.1,0-0.2,0-0.3,0c0,0,0,0-0.1,0c-0.1,0-0.3,0-0.4,0c-0.1,0-0.2,0-0.3,0c-0.1,0-0.2,0.1-0.3,0.1c-0.1,0-0.3,0.1-0.4,0.1   c0,0,0,0-0.1,0L100,111.4l-22-10.1c-1.9-0.9-4.1,0-5,1.8c-0.9,1.9,0,4.1,1.8,5L98.4,119c0.5,0.2,1,0.3,1.6,0.3   c0.5,0,1.1-0.1,1.6-0.3l32.4-14.9l0,18.9c-4.3,4.1-9.2,7.3-14.7,9.6c-6.1,2.6-12.6,3.9-19.3,3.9c-6.7,0-13.2-1.3-19.3-3.9   c-0.9-0.4-1.7-0.8-2.6-1.2c-1.9-0.9-4.1-0.2-5,1.7c-0.9,1.9-0.2,4.1,1.7,5c1,0.5,2,0.9,3,1.4c7,3,14.5,4.5,22.2,4.5   c7.7,0,15.2-1.5,22.2-4.5c6.8-2.9,12.9-7,18.1-12.3c0.7-0.7,1.1-1.7,1.1-2.6l0-26.3c0,0,0,0,0-0.1   C141.4,98.1,141.4,97.9,141.4,97.8z"/><path d="M172.8,79.4l-71.2-32.7c-1-0.5-2.1-0.5-3.1,0L27.2,79.4C25.9,80,25,81.4,25,82.8c0,1.5,0.9,2.8,2.2,3.4L48.4,96   c1.9,0.9,4.1,0,5-1.8c0.9-1.9,0-4.1-1.8-5l-13.8-6.3L100,54.3l62.3,28.6l-14.5,6.7c-1.9,0.9-2.7,3.1-1.8,5c0.6,1.4,2,2.2,3.4,2.2   c0.5,0,1.1-0.1,1.6-0.3l21.9-10.1c1.3-0.6,2.2-1.9,2.2-3.4S174.1,80.1,172.8,79.4z"/><path d="M101.6,83.8c1.9-0.9,2.7-3.1,1.8-5c-0.9-1.9-3.1-2.7-5-1.8L60.7,94.8c-0.1,0-0.1,0.1-0.2,0.1c-0.1,0.1-0.3,0.1-0.4,0.2   c-0.1,0.1-0.2,0.1-0.3,0.2c-0.1,0.1-0.2,0.2-0.3,0.2c-0.1,0.1-0.2,0.2-0.2,0.3c-0.1,0.1-0.1,0.2-0.2,0.3c-0.1,0.1-0.1,0.2-0.2,0.3   c-0.1,0.1-0.1,0.2-0.2,0.3c0,0.1-0.1,0.2-0.1,0.3c0,0.1-0.1,0.2-0.1,0.3c0,0.1,0,0.3,0,0.4c0,0.1,0,0.2,0,0.2l0,51.6   c0,2.1,1.7,3.7,3.7,3.7c0,0,0,0,0,0c2.1,0,3.7-1.7,3.7-3.7l0-49.2L101.6,83.8z"/></g></svg>
