<svg xmlns:dc="http://purl.org/dc/elements/1.1/" xmlns:cc="http://creativecommons.org/ns#" xmlns:rdf="http://www.w3.org/1999/02/22-rdf-syntax-ns#" xmlns:svg="http://www.w3.org/2000/svg" xmlns="http://www.w3.org/2000/svg" xmlns:sodipodi="http://sodipodi.sourceforge.net/DTD/sodipodi-0.dtd" xmlns:inkscape="http://www.inkscape.org/namespaces/inkscape" version="1.1" x="0px" y="0px" viewBox="0 0 100 125"><g transform="translate(0,-952.36218)"><path style="text-indent: 0;
  text-transform: none;
  direction: ltr;
  block-progression: tb;
  baseline-shift: baseline;
  color: #000000;
  enable-background: accumulate;" d="m 37,15 c -3.826109,0 -7,3.17389 -7,7 l 0,3 -18,0 c -3.8261069,0 -7,3.17389 -7,7 l 0,46 c 0,3.8261 3.1738931,7 7,7 l 76,0 c 3.826107,0 7,-3.1739 7,-7 l 0,-46 c 0,-3.82611 -3.173893,-7 -7,-7 l -18,0 0,-3 c 0,-3.82611 -3.173891,-7 -7,-7 z m 0,6 26,0 c 0.605889,0 1,0.39411 1,1 l 0,3 -28,0 0,-3 c 0,-0.60589 0.394111,-1 1,-1 z m -25,10 76,0 c 0.60589,0 1,0.39411 1,1 l 0,6.0625 C 80.052522,44.579239 65.91161,49 50,49 34.08839,49 19.947478,44.579239 11,38.0625 L 11,32 c 0,-0.60589 0.39411,-1 1,-1 z m -1,14.25 c 7.829004,4.748312 17.832003,7.996606 29,9.21875 L 40,59 c 0,2.7181 2.281892,5 5,5 l 10,0 c 2.718108,0 5,-2.2819 5,-5 l 0,-4.53125 C 71.167997,53.246606 81.170996,49.998312 89,45.25 L 89,78 c 0,0.6059 -0.39411,1 -1,1 l -76,0 c -0.60589,0 -1,-0.3941 -1,-1 z m 35,9.6875 C 47.319696,54.993666 48.656437,55 50,55 c 1.343563,0 2.680304,-0.0063 4,-0.0625 L 54,58 46,58 z" transform="translate(0,952.36218)"  stroke="none" marker="none" visibility="visible" display="inline" overflow="visible"/></g></svg>
