<svg xmlns="http://www.w3.org/2000/svg" xmlns:xlink="http://www.w3.org/1999/xlink"><defs><linearGradient id="paint0_linear" x1="16.842" y1="1.829" x2="52.588" y2="13.732" gradientUnits="userSpaceOnUse"><stop offset="100%" stop-color="#FFC341"/><stop offset=".964" stop-color="#FFD701"/></linearGradient><linearGradient id="paint1_linear" x1="30.632" y1="8.029" x2="55.51" y2="19.074" gradientUnits="userSpaceOnUse"><stop offset="100%" stop-color="#FFC341"/><stop offset=".964" stop-color="#FFD701"/></linearGradient></defs><symbol id="icon-arrow" viewBox="0 0 900 1000"><path fill="#66d0f8" d="M216 0l215 622-215-118L0 622z"/></symbol><symbol id="icon-case" viewBox="0 0 100 125"><path style="text-indent:0;text-transform:none;block-progression:tb" d="M37 15c-3.826 0-7 3.174-7 7v3H12c-3.826 0-7 3.174-7 7v46c0 3.826 3.174 7 7 7h76c3.826 0 7-3.174 7-7V32c0-3.826-3.174-7-7-7H70v-3c0-3.826-3.174-7-7-7zm0 6h26c.606 0 1 .394 1 1v3H36v-3c0-.606.394-1 1-1zM12 31h76c.606 0 1 .394 1 1v6.063C80.053 44.578 65.912 49 50 49c-15.912 0-30.053-4.42-39-10.938V32c0-.606.394-1 1-1zm-1 14.25c7.829 4.748 17.832 7.997 29 9.219V59c0 2.718 2.282 5 5 5h10c2.718 0 5-2.282 5-5v-4.531c11.168-1.222 21.171-4.47 29-9.219V78c0 .606-.394 1-1 1H12c-.606 0-1-.394-1-1zm35 9.688c1.32.056 2.656.062 4 .062 1.344 0 2.68-.006 4-.063V58h-8z" color="#000"/></symbol><symbol id="icon-checkmark"><rect x="3" y="3" width="58" height="58" rx="29" stroke="url(#paint0_linear)" stroke-width="6"/><path d="M18 27.88L32.197 43 66 7" stroke="url(#paint1_linear)" stroke-width="9" stroke-linecap="round" stroke-linejoin="round"/></symbol><symbol id="icon-close"><path fill-rule="evenodd" clip-rule="evenodd" d="M7.485 8.5L0 1.507 1.418 0 9 7.084 16.582 0 18 1.507 10.515 8.5 18 15.493 16.582 17 9 9.916 1.418 17 0 15.493 7.485 8.5z" fill="url(#paint0_linear)"/></symbol><symbol id="icon-fb"><path d="M8.538 4.187H10.4V.943A24.401 24.401 0 007.687.8C5.002.8 3.163 2.489 3.163 5.593V8.45H.2v3.626h2.963V21.2h3.632v-9.123h2.843l.452-3.626H6.795V5.953c0-1.049.283-1.766 1.743-1.766z"/></symbol><symbol id="icon-insta" viewBox="2 0 22 22"><path d="M12 8.4A3.604 3.604 0 008.4 12c0 1.985 1.615 3.6 3.6 3.6s3.6-1.615 3.6-3.6-1.615-3.6-3.6-3.6z"/><path fill-rule="evenodd" clip-rule="evenodd" d="M2.4 17.61V6.39A3.99 3.99 0 016.39 2.4h11.22a3.99 3.99 0 013.99 3.99v11.22a3.99 3.99 0 01-3.99 3.99H6.39a3.99 3.99 0 01-3.99-3.99zm4.16-7.644a5.823 5.823 0 007.474 7.474 5.508 5.508 0 003.406-3.406A5.823 5.823 0 009.966 6.56 5.508 5.508 0 006.56 9.966zM18 6.6a1.2 1.2 0 100-2.4 1.2 1.2 0 000 2.4z"/></symbol><symbol id="icon-location" viewBox="0 0 100 125"><path d="M50 16.8c-12.8 0-23.2 10.4-23.2 23.2 0 3.4.8 6.9 2.3 10 2 4.9 18.7 31.1 19.4 32.2.3.5.9.8 1.5.8s1.2-.3 1.5-.8c.7-1.1 17.4-27.4 19.6-32.2 1.5-3.2 2.3-6.6 2.3-10.1-.2-12.6-10.6-23.1-23.4-23.1zm-.1 32c-4.8 0-8.6-3.9-8.6-8.6.1-4.8 4-8.7 8.6-8.7 4.8 0 8.6 3.9 8.6 8.6 0 4.8-3.8 8.7-8.6 8.7z"/></symbol><symbol id="icon-play"><path d="M15 9.5L0 19V0l15 9.5z" fill="#1FC0FC"/></symbol><symbol id="icon-religion" viewBox="21 20 100 115"><path d="M104.4 39.8c1.1-1.1 1.1-2.8.1-3.9l-2-2.1-2 2.1c-1 1.1-1 2.7 0 3.8 1.1 1.1 2.8 1.2 3.9.1zm-4.6 21.5c0 15-11.5 27.4-26.2 28.8v-4.8c12-1.4 21.4-11.6 21.4-24V42.7h-5.5v18.6c0 9.3-6.9 17.1-15.9 18.4v-4.8c6.3-1.3 11.1-6.9 11.1-13.6V42.7h-5.5v18.6c0 3.6-2.4 6.8-5.6 7.9V42.7h-5.5v26.5c-3.3-1.1-5.6-4.2-5.6-7.9V42.7H57v18.6c0 6.7 4.8 12.3 11.1 13.6v4.8c-9-1.3-15.9-9.1-15.9-18.4V42.7h-5.5v18.6c0 12.4 9.4 22.6 21.4 24v4.8c-14.7-1.4-26.2-13.8-26.2-28.8V42.7h-5.5v18.6c0 18.1 14 32.9 31.7 34.3v9.6h-9.9v5.5h25.4v-5.5h-9.9v-9.6c17.7-1.4 31.7-16.2 31.7-34.3V42.7h-5.5v18.6zm-5.6-21.5c1.1-1.1 1.1-2.8.1-3.9l-2-2.1-2 2.1c-1 1.1-1 2.7 0 3.8 1 1.1 2.8 1.2 3.9.1zm-10.3 0c1.1-1 1.1-2.8.1-3.9l-2-2.1-2 2.1c-1 1.1-1 2.7 0 3.8 1 1.1 2.8 1.2 3.9.1zm-11.1 0c1.1-1.1 1.1-2.8.1-3.9l-2-2.1-2 2.1c-1 1.1-1 2.7 0 3.8 1 1.1 2.8 1.2 3.9.1zm-11.1 0c1.1-1.1 1.1-2.8.1-3.9l-2-2.1-2 2.1c-1 1.1-1 2.7 0 3.8 1 1.1 2.7 1.2 3.9.1zm-10.3 0c1.1-1.1 1.1-2.8.1-3.9l-2-2.1-2 2.1c-1 1.1-1 2.7 0 3.8 1 1.1 2.8 1.2 3.9.1zm-10.3 0c1.1-1.1 1.1-2.8.1-3.9l-2-2.1-2 2.1c-1 1.1-1 2.7 0 3.8 1 1.1 2.8 1.2 3.9.1z"/></symbol><symbol id="icon-star" viewBox="8 9 90 100"><path d="M82.386 66.767L72.704 50l9.708-16.813a2.396 2.396 0 00-2.076-3.594H60.922L52.076 14.27a2.4 2.4 0 00-4.152 0l-8.847 15.323H19.663a2.398 2.398 0 00-2.076 3.594L27.295 50l-9.708 16.813a2.398 2.398 0 002.076 3.595h19.414l8.847 15.323a2.397 2.397 0 004.152 0l8.846-15.323h19.414a2.397 2.397 0 002.05-3.641zm-6.201-32.381l-6.247 10.82-6.248-10.82h12.495zM67.171 50l-9.016 15.615H41.844L32.83 50l9.015-15.614h16.311L67.171 50zM50 20.26l5.388 9.332H44.612L50 20.26zM23.813 34.386H36.31l-6.249 10.82-6.248-10.82zm0 31.229l6.248-10.822 6.249 10.822H23.813zM50 79.74l-5.388-9.332h10.776L50 79.74zm13.689-14.125l6.248-10.822 6.247 10.822H63.689z"/></symbol><symbol id="icon-student" viewBox="0 0 100 125"><path d="M49.999 60.049a2.5 2.5 0 01-1.207-.311L1.293 33.566a2.498 2.498 0 01-.001-4.377l47.5-26.227a2.502 2.502 0 012.417 0l47.5 26.227a2.5 2.5 0 01-.002 4.377L51.205 59.738c-.375.207-.79.311-1.206.311zM7.676 31.375l42.323 23.32 42.324-23.32L50 8.006 7.676 31.375z"/><path d="M17.5 54.708a2.5 2.5 0 01-2.5-2.5V41.064a2.5 2.5 0 115 0v11.144a2.5 2.5 0 01-2.5 2.5zm65 0a2.5 2.5 0 01-2.5-2.5V41.064a2.5 2.5 0 115 0v11.144a2.5 2.5 0 01-2.5 2.5z"/><path d="M50 77.517c-19.299 0-35-10.876-35-24.245a2.5 2.5 0 115 0c0 10.611 13.458 19.245 30 19.245s30-8.634 30-19.245a2.5 2.5 0 115 0c0 13.369-15.701 24.245-35 24.245zM26.751 46.092a2.5 2.5 0 01-1.175-4.708l23.116-12.287a2.5 2.5 0 012.347 4.415L27.922 45.799a2.485 2.485 0 01-1.171.293z"/><path d="M26.375 85.226a2.5 2.5 0 01-2.5-2.5V44.975a2.5 2.5 0 115 0v37.751a2.5 2.5 0 01-2.5 2.5z"/><path d="M31.5 97.35H21.25a2.5 2.5 0 01-2.5-2.5V88.1c0-4.204 3.42-7.625 7.625-7.625S34 83.896 34 88.1v6.75a2.5 2.5 0 01-2.5 2.5zm-7.75-5H29V88.1c0-1.447-1.178-2.625-2.625-2.625S23.75 86.652 23.75 88.1v4.25z"/></symbol><symbol id="icon-telegram"><path d="M8.633 11.863l-.364 5.026c.52 0 .746-.22 1.016-.483l2.441-2.291 5.059 3.637c.927.508 1.581.24 1.831-.838l3.32-15.275h.001c.295-1.347-.495-1.874-1.4-1.543L1.022 7.432C-.31 7.939-.29 8.668.795 8.999l4.99 1.523 11.59-7.12c.545-.354 1.04-.158.633.197l-9.375 8.264z"/></symbol><symbol id="icon-tick" viewBox="0 0 58 46"><path d="M5 25.88L19.197 41 53 5" stroke="url(#paint0_linear)" stroke-width="9" stroke-linecap="round" stroke-linejoin="round"/></symbol><symbol id="icon-twitter"><path d="M23.077 2.13a9.47 9.47 0 01-2.617.718 4.516 4.516 0 001.998-2.51 9.076 9.076 0 01-2.88 1.1 4.54 4.54 0 00-7.856 3.106c0 .359.03.705.105 1.035C8.05 5.394 4.71 3.585 2.466.828a4.573 4.573 0 00-.622 2.296c0 1.573.81 2.967 2.017 3.774a4.485 4.485 0 01-2.052-.56v.05a4.563 4.563 0 003.639 4.463c-.37.101-.773.15-1.19.15-.291 0-.585-.017-.86-.078.588 1.799 2.258 3.121 4.243 3.164a9.125 9.125 0 01-5.63 1.937c-.373 0-.73-.017-1.088-.062A12.787 12.787 0 007.89 18c8.358 0 12.927-6.923 12.927-12.924 0-.2-.007-.395-.017-.587a9.061 9.061 0 002.277-2.358z"/></symbol><symbol id="icon-volunteur" viewBox="0 0 32 40"><path d="M22.999 12.431a2.393 2.393 0 01-1.683-.686L17.161 7.65a3.858 3.858 0 01-1.14-3.121 3.9 3.9 0 011.735-2.878c1.545-1.033 3.664-.793 5.046.566l.225.222.295-.291a3.914 3.914 0 012.872-1.129A3.906 3.906 0 0129 2.301c1.374 1.509 1.258 3.952-.259 5.446l-4.057 3.998a2.393 2.393 0 01-1.685.686zm-3.107-9.422c-.361 0-.717.1-1.022.304a1.883 1.883 0 00-.857 1.404c-.053.56.149 1.11.554 1.508l4.155 4.095a.402.402 0 00.56 0l4.056-3.998c.762-.75.845-1.95.185-2.674a1.917 1.917 0 00-1.381-.629c-.531-.001-1.037.182-1.414.554l-.997.982a1 1 0 01-1.404 0l-.927-.913a2.173 2.173 0 00-1.508-.633zM5.078 30H1.996A1.998 1.998 0 010 28.004V16.996C0 15.895.895 15 1.996 15h3.929a1.999 1.999 0 011.99 2.149l-.847 11.01A2.006 2.006 0 015.078 30zm0-2v1-1zm.842-11.004L1.996 17 2 28.004 5.075 28l.845-11.004zM18 29c-3.259 0-6.831-.696-9.553-1.863l-2.543-1.09a1 1 0 11.788-1.837l2.543 1.09C11.721 26.364 14.998 27 18 27c3.855 0 6.927-1.308 10.844-3.154C29.917 23.341 30 22.801 30 22.647c0-.213-.063-.384-.188-.51-.158-.158-.946-.189-2.131.249a7.262 7.262 0 01-.759.24c-3.367.868-8.02 1.053-11.577.46a1 1 0 01-.825-1.128.99.99 0 011.109-.852c1.96.235 3.554.199 4.871-.11.462-.069.744-.396.744-.773a.76.76 0 00-.68-.757c-1.918-.236-4.356-.572-6.766-1.15A13.735 13.735 0 0011 18c-1.336 0-2.201.334-3.615.923-.509.215-1.095-.028-1.308-.538s.028-1.096.538-1.308C8.223 16.407 9.32 16 11 16c1.181 0 2.521.192 3.265.372 2.312.554 4.677.88 6.479 1.103 1.453.18 2.499 1.358 2.499 2.749 0 .367-.073.721-.208 1.046 1.216-.124 2.374-.317 3.387-.579.193-.05.378-.11.566-.18 1.095-.406 3.104-.919 4.238.213.5.501.774 1.183.774 1.923 0 .578-.225 2.028-2.304 3.007C26.371 27.223 22.602 29 18 29z"/></symbol><symbol id="icon-whatsup"><path d="M10.002 0h-.005C4.485 0 0 4.485 0 10c0 2.188.705 4.215 1.904 5.861L.658 19.576 4.5 18.347A9.913 9.913 0 0010.002 20C15.517 20 20 15.514 20 10S15.516 0 10.002 0zm5.82 14.121c-.242.681-1.2 1.246-1.963 1.412-.523.11-1.205.2-3.503-.753-2.938-1.217-4.831-4.204-4.978-4.397C5.236 10.188 4.19 8.8 4.19 7.366c0-1.435.729-2.133 1.022-2.433.242-.247.64-.36 1.023-.36.124 0 .235.007.335.012.294.013.441.03.635.494.241.581.829 2.016.899 2.163.071.148.142.348.042.542-.094.2-.176.288-.324.458-.147.17-.287.3-.434.483-.135.159-.288.329-.118.623.17.287.758 1.246 1.623 2.016 1.116.993 2.02 1.311 2.345 1.446.24.1.528.076.705-.111.223-.242.5-.642.78-1.035.2-.283.453-.318.718-.218.27.094 1.699.8 1.993.947.293.147.487.217.559.34.07.124.07.706-.172 1.388z"/></symbol></svg>