<svg xmlns="http://www.w3.org/2000/svg" xmlns:xlink="http://www.w3.org/1999/xlink" version="1.1" x="0px" y="0px" height="25" width="23" viewBox="0 0 151.7 117.125" style="enable-background: new 0 0 141.7 141.7;" xml:space="preserve"><g><path d="M104.4,39.8c1.1-1.1,1.1-2.8,0.1-3.9l-2-2.1l-2,2.1c-1,1.1-1,2.7,0,3.8C101.6,40.8,103.3,40.9,104.4,39.8z"/><path d="M99.8,61.3c0,15-11.5,27.4-26.2,28.8v-4.8c12-1.4,21.4-11.6,21.4-24V42.7h-5.5v18.6c0,9.3-6.9,17.1-15.9,18.4v-4.8   c6.3-1.3,11.1-6.9,11.1-13.6V42.7h-5.5v18.6c0,3.6-2.4,6.8-5.6,7.9V42.7h-5.5v26.5c-3.3-1.1-5.6-4.2-5.6-7.9V42.7H57v18.6   c0,6.7,4.8,12.3,11.1,13.6v4.8c-9-1.3-15.9-9.1-15.9-18.4V42.7h-5.5v18.6c0,12.4,9.4,22.6,21.4,24v4.8   c-14.7-1.4-26.2-13.8-26.2-28.8V42.7h-5.5v18.6c0,18.1,14,32.9,31.7,34.3v9.6h-9.9v5.5h25.4v-5.5h-9.9v-9.6   c17.7-1.4,31.7-16.2,31.7-34.3V42.7h-5.5V61.3z"/><path d="M94.2,39.8c1.1-1.1,1.1-2.8,0.1-3.9l-2-2.1l-2,2.1c-1,1.1-1,2.7,0,3.8C91.3,40.8,93.1,40.9,94.2,39.8z"/><path d="M83.9,39.8C85,38.8,85,37,84,35.9l-2-2.1l-2,2.1c-1,1.1-1,2.7,0,3.8C81,40.8,82.8,40.9,83.9,39.8z"/><path d="M72.8,39.8c1.1-1.1,1.1-2.8,0.1-3.9l-2-2.1l-2,2.1c-1,1.1-1,2.7,0,3.8C69.9,40.8,71.7,40.9,72.8,39.8z"/><path d="M61.7,39.8c1.1-1.1,1.1-2.8,0.1-3.9l-2-2.1l-2,2.1c-1,1.1-1,2.7,0,3.8C58.8,40.8,60.5,40.9,61.7,39.8z"/><path d="M51.4,39.8c1.1-1.1,1.1-2.8,0.1-3.9l-2-2.1l-2,2.1c-1,1.1-1,2.7,0,3.8C48.5,40.8,50.3,40.9,51.4,39.8z"/><path d="M41.1,39.8c1.1-1.1,1.1-2.8,0.1-3.9l-2-2.1l-2,2.1c-1,1.1-1,2.7,0,3.8C38.2,40.8,40,40.9,41.1,39.8z"/></g></svg>
