<svg viewBox="0 0 32 32" xmlns="http://www.w3.org/2000/svg"><path d="M16 11.2a4.805 4.805 0 00-4.8 4.8c0 2.647 2.153 4.8 4.8 4.8s4.8-2.153 4.8-4.8-2.153-4.8-4.8-4.8z"/><path fill-rule="evenodd" clip-rule="evenodd" d="M3.2 23.481V8.52A5.319 5.319 0 018.519 3.2h14.962A5.32 5.32 0 0128.8 8.52v14.96a5.32 5.32 0 01-5.32 5.32H8.52a5.319 5.319 0 01-5.32-5.32zm5.547-10.193c-2.18 6.315 3.65 12.144 9.965 9.966a7.344 7.344 0 004.541-4.542c2.179-6.314-3.65-12.144-9.965-9.965a7.345 7.345 0 00-4.541 4.542zM24 8.8a1.6 1.6 0 100-3.2 1.6 1.6 0 000 3.2z"/></svg>