<svg width="30" height="30" xmlns="http://www.w3.org/2000/svg" viewBox="8 9 90 100"><path d="M82.386 66.767L72.704 50l9.708-16.813a2.396 2.396 0 00-2.076-3.594H60.922L52.076 14.27a2.4 2.4 0 00-4.152 0l-8.847 15.323H19.663a2.398 2.398 0 00-2.076 3.594L27.295 50l-9.708 16.813a2.398 2.398 0 002.076 3.595h19.414l8.847 15.323a2.397 2.397 0 004.152 0l8.846-15.323h19.414a2.397 2.397 0 002.05-3.641zm-6.201-32.381l-6.247 10.82-6.248-10.82h12.495zM67.171 50l-9.016 15.615H41.844L32.83 50l9.015-15.614h16.311L67.171 50zM50 20.26l5.388 9.332H44.612L50 20.26zM23.813 34.386H36.31l-6.249 10.82-6.248-10.82zm0 31.229l6.248-10.822 6.249 10.822H23.813zM50 79.74l-5.388-9.332h10.776L50 79.74zm13.689-14.125l6.248-10.822 6.247 10.822H63.689z"/></svg>