<svg xmlns="http://www.w3.org/2000/svg" viewBox="0 0 32 40"><path d="M22.999 12.431a2.393 2.393 0 01-1.683-.686L17.161 7.65a3.858 3.858 0 01-1.14-3.121 3.9 3.9 0 011.735-2.878c1.545-1.033 3.664-.793 5.046.566l.225.222.295-.291a3.914 3.914 0 012.872-1.129A3.906 3.906 0 0129 2.301c1.374 1.509 1.258 3.952-.259 5.446l-4.057 3.998a2.393 2.393 0 01-1.685.686zm-3.107-9.422c-.361 0-.717.1-1.022.304a1.883 1.883 0 00-.857 1.404c-.053.56.149 1.11.554 1.508l4.155 4.095a.402.402 0 00.56 0l4.056-3.998c.762-.75.845-1.95.185-2.674a1.917 1.917 0 00-1.381-.629c-.531-.001-1.037.182-1.414.554l-.997.982a1 1 0 01-1.404 0l-.927-.913a2.173 2.173 0 00-1.508-.633zM5.078 30H1.996A1.998 1.998 0 010 28.004V16.996C0 15.895.895 15 1.996 15h3.929a1.999 1.999 0 011.99 2.149l-.847 11.01A2.006 2.006 0 015.078 30zm0-2v1-1zm.842-11.004L1.996 17 2 28.004 5.075 28l.845-11.004zM18 29c-3.259 0-6.831-.696-9.553-1.863l-2.543-1.09a1 1 0 11.788-1.837l2.543 1.09C11.721 26.364 14.998 27 18 27c3.855 0 6.927-1.308 10.844-3.154C29.917 23.341 30 22.801 30 22.647c0-.213-.063-.384-.188-.51-.158-.158-.946-.189-2.131.249a7.262 7.262 0 01-.759.24c-3.367.868-8.02 1.053-11.577.46a1 1 0 01-.825-1.128.99.99 0 011.109-.852c1.96.235 3.554.199 4.871-.11.462-.069.744-.396.744-.773a.76.76 0 00-.68-.757c-1.918-.236-4.356-.572-6.766-1.15A13.735 13.735 0 0011 18c-1.336 0-2.201.334-3.615.923-.509.215-1.095-.028-1.308-.538s.028-1.096.538-1.308C8.223 16.407 9.32 16 11 16c1.181 0 2.521.192 3.265.372 2.312.554 4.677.88 6.479 1.103 1.453.18 2.499 1.358 2.499 2.749 0 .367-.073.721-.208 1.046 1.216-.124 2.374-.317 3.387-.579.193-.05.378-.11.566-.18 1.095-.406 3.104-.919 4.238.213.5.501.774 1.183.774 1.923 0 .578-.225 2.028-2.304 3.007C26.371 27.223 22.602 29 18 29z"/></svg>