<svg xmlns="http://www.w3.org/2000/svg" viewBox="0 0 32 40" enable-background="new 0 0 32 32" x="0px" y="0px"><g><path d="M22.999 12.431c-.609 0-1.219-.229-1.683-.686l-4.155-4.095c-.834-.823-1.25-1.96-1.14-3.121.11-1.165.742-2.214 1.735-2.878 1.545-1.033 3.664-.793 5.046.566l.225.222.295-.291c.757-.746 1.761-1.152 2.872-1.129 1.082.029 2.078.484 2.806 1.282 1.374 1.509 1.258 3.952-.259 5.446l-4.057 3.998c-.465.458-1.075.686-1.685.686zm-3.107-9.422c-.361 0-.717.1-1.022.304-.499.333-.803.832-.857 1.404-.053.56.149 1.11.554 1.508l4.155 4.095c.152.151.405.152.56 0l4.056-3.998c.762-.75.845-1.95.185-2.674-.356-.392-.848-.615-1.381-.629-.531-.001-1.037.182-1.414.554l-.997.982c-.389.384-1.014.384-1.404 0l-.927-.913c-.424-.415-.973-.633-1.508-.633zM5.078 30h-3.082c-1.101 0-1.996-.896-1.996-1.996v-11.008c0-1.101.895-1.996 1.996-1.996h3.929c.554 0 1.088.233 1.464.64.377.406.568.957.526 1.509l-.847 11.01c-.08 1.031-.954 1.841-1.99 1.841zm0-2v1-1zm.842-11.004l-3.924.004.004 11.004 3.075-.004.845-11.004zM18 29c-3.259 0-6.831-.696-9.553-1.863l-2.543-1.09c-.507-.218-.743-.806-.525-1.312.216-.509.805-.746 1.313-.525l2.543 1.09c2.486 1.064 5.763 1.7 8.765 1.7 3.855 0 6.927-1.308 10.844-3.154 1.073-.505 1.156-1.045 1.156-1.199 0-.213-.063-.384-.188-.51-.158-.158-.946-.189-2.131.249-.252.094-.499.174-.759.24-3.367.868-8.02 1.053-11.577.46-.536-.089-.902-.59-.825-1.128.077-.538.559-.923 1.109-.852 1.96.235 3.554.199 4.871-.11.462-.069.744-.396.744-.773 0-.39-.286-.708-.68-.757-1.918-.236-4.356-.572-6.766-1.15-.529-.127-1.71-.316-2.798-.316-1.336 0-2.201.334-3.615.923-.509.215-1.095-.028-1.308-.538s.028-1.096.538-1.308c1.608-.67 2.705-1.077 4.385-1.077 1.181 0 2.521.192 3.265.372 2.312.554 4.677.88 6.479 1.103 1.453.18 2.499 1.358 2.499 2.749 0 .367-.073.721-.208 1.046 1.216-.124 2.374-.317 3.387-.579.193-.05.378-.11.566-.18 1.095-.406 3.104-.919 4.238.213.5.501.774 1.183.774 1.923 0 .578-.225 2.028-2.304 3.007-3.325 1.569-7.094 3.346-11.696 3.346z"/></g></svg>
