<svg width="30" height="33" viewBox="0 0 30 33" xmlns="http://www.w3.org/2000/svg">
<path fill-rule="evenodd" clip-rule="evenodd" d="M15.8609 1.49128L14.983 0.00561523L14.1305 1.506L10.4408 8.00001L2.00001 8.00001H0.247559L1.13908 9.50874L5.4441 16.7942L1.63055 23.506L0.78168 25H2.50001H10.293L14.1391 31.5087L15.017 32.9944L15.8695 31.494L19.5592 25H28H29.7525L28.8609 23.4913L24.5559 16.2059L28.3695 9.49402L29.2183 8.00001H27.5L19.707 8.00001L15.8609 1.49128ZM17.3839 8.00001L15.017 3.9944L12.7411 8.00001L17.3839 8.00001ZM11.6047 10H18.5657L22.2445 16.2255L18.3953 23H11.4343L7.75556 16.7745L11.6047 10ZM9.30441 10L3.75245 10L6.58286 14.7899L9.30441 10ZM6.61679 18.7787L4.21833 23H9.1112L6.61679 18.7787ZM12.6161 25L14.983 29.0056L17.259 25H12.6161ZM20.6956 23H26.2476L23.4172 18.2101L20.6956 23ZM23.3832 14.2213L20.8888 10H25.7817L23.3832 14.2213Z"/>
<defs>
<linearGradient id="gradient" x1="8.012" y1="0.948155" x2="24.8271" y2="5.95619" gradientUnits="userSpaceOnUse">
<stop stop-color="#FFC341"/>
<stop offset="0.963542" stop-color="#FFD701"/>
</linearGradient>
</defs>
</svg>
