<svg width="30" height="24" xmlns="http://www.w3.org/2000/svg"><path d="M29.77 2.841a12.625 12.625 0 01-3.49.956A6.022 6.022 0 0028.944.45a12.103 12.103 0 01-3.84 1.466 6.054 6.054 0 00-10.475 4.14c0 .481.04.943.14 1.382C9.735 7.193 5.28 4.78 2.288 1.104a6.097 6.097 0 00-.83 3.06 6.064 6.064 0 002.69 5.033 5.98 5.98 0 01-2.736-.745v.066c0 2.943 2.1 5.387 4.852 5.95-.493.135-1.03.2-1.588.2a5.35 5.35 0 01-1.146-.104c.785 2.398 3.011 4.161 5.658 4.219a12.168 12.168 0 01-7.508 2.582c-.496 0-.973-.022-1.449-.083A17.047 17.047 0 009.521 24c11.143 0 17.235-9.23 17.235-17.232 0-.268-.009-.526-.022-.783a12.081 12.081 0 003.035-3.144z"/></svg>