<svg xmlns="http://www.w3.org/2000/svg" xmlns:xlink="http://www.w3.org/1999/xlink" version="1.1" x="0px" y="0px" viewBox="0 0 100 125" enable-background="new 0 0 100 100" xml:space="preserve"><g><path d="M50,16.8c-12.8,0-23.2,10.4-23.2,23.2c0,3.4,0.8,6.9,2.3,10c2,4.9,18.7,31.1,19.4,32.2c0.3,0.5,0.9,0.8,1.5,0.8   c0.6,0,1.2-0.3,1.5-0.8c0.7-1.1,17.4-27.4,19.6-32.2c1.5-3.2,2.3-6.6,2.3-10.1C73.2,27.3,62.8,16.8,50,16.8z M49.9,48.8   c-4.8,0-8.6-3.9-8.6-8.6c0.1-4.8,4-8.7,8.6-8.7c4.8,0,8.6,3.9,8.6,8.6C58.5,44.9,54.7,48.8,49.9,48.8z"/></g></svg>
